<?xml version="1.0" encoding="utf-8"?><svg xmlns="http://www.w3.org/2000/svg" xmlns:xlink="http://www.w3.org/1999/xlink" width="1920" height="925" preserveAspectRatio="xMidYMid" viewBox="0 0 1920 925" style="z-index:1;display:block;animation-play-state:paused" ><g transform="" style="animation-play-state:paused" ><defs style="animation-play-state:paused" ><linearGradient id="ldbk-photon-cyz3omjayhu-lg" x1="0" x2="1746.8" y1="0" y2="0" gradientUnits="userSpaceOnUse" style="animation-play-state:paused" ><stop stop-color="#0e0f2c" offset="0" style="animation-play-state:paused" ></stop>

    
<stop stop-color="#1cc3ed" offset="1" style="animation-play-state:paused" ></stop></linearGradient>

  
<mask id="ldbk-photon-cyz3omjayhu-mask" style="animation-play-state:paused" ><g style="animation-play-state:paused" ><path d="M-300 -0.5 L1773.8435814095358 -0.5 A15 15 0 0 1 1773.8435814095358 30.5 L-300 30.5" fill="#fff" transform="matrix(1,0,0,1,0,0)" style="animation-play-state:paused" ></path>
<path d="M1720.0612386798223 -0.5 L1743.8435814095358 -0.5 A15 15 0 0 1 1743.8435814095358 30.5 L1720.0612386798223 30.5 A15 15 0 0 1 1720.0612386798223 -0.5" fill="#fff" transform="matrix(1,0,0,1,0,0)" opacity="1" style="animation-play-state:paused" ></path>
<path d="M-300 29.5 L1711.2115195389113 29.5 A15 15 0 0 0 1711.2115195389113 60.5 L-300 60.5" fill="#fff" transform="matrix(1,0,0,1,-1.8667747974395752,0)" style="animation-play-state:paused" ></path>
<path d="M-67.10872616006839 29.5 L-30.000000000000007 29.5 A15 15 0 0 1 -30.000000000000007 60.5 L-67.10872616006839 60.5 A15 15 0 0 1 -67.10872616006839 29.5" fill="#000" transform="matrix(1,0,0,1,0,0)" opacity="1" style="animation-play-state:paused" ></path>
<path d="M-300 59.5 L1802.7624217920547 59.5 A15 15 0 0 1 1802.7624217920547 90.5 L-300 90.5" fill="#fff" transform="matrix(1,0,0,1,13.723146438598633,0)" style="animation-play-state:paused" ></path>
<path d="M1757.175396662082 59.5 L1772.7624217920547 59.5 A15 15 0 0 1 1772.7624217920547 90.5 L1757.175396662082 90.5 A15 15 0 0 1 1757.175396662082 59.5" fill="#fff" transform="matrix(1,0,0,1,854.3172607421875,0)" opacity="0.875714" style="opacity:0.875714;animation-play-state:paused" ></path>
<path d="M-300 89.5 L1701.3730967485367 89.5 A15 15 0 0 0 1701.3730967485367 120.5 L-300 120.5" fill="#fff" transform="matrix(1,0,0,1,-43.57863235473633,0)" style="animation-play-state:paused" ></path>
<path d="M-67.38689969539547 89.5 L-30 89.5 A15 15 0 0 1 -30 120.5 L-67.38689969539547 120.5 A15 15 0 0 1 -67.38689969539547 89.5" fill="#000" transform="matrix(1,0,0,1,0,0)" opacity="0.184304" style="opacity:0.184304;animation-play-state:paused" ></path>
<path d="M-300 119.5 L1752.2369610653852 119.5 A15 15 0 0 1 1752.2369610653852 150.5 L-300 150.5" fill="#fff" transform="matrix(1,0,0,1,35.574668884277344,0)" style="animation-play-state:paused" ></path>
<path d="M1682.2380628999736 119.5 L1722.2369610653852 119.5 A15 15 0 0 1 1722.2369610653852 150.5 L1682.2380628999736 150.5 A15 15 0 0 1 1682.2380628999736 119.5" fill="#fff" transform="matrix(1,0,0,1,1043.4229736328125,0)" opacity="0.875571" style="opacity:0.875571;animation-play-state:paused" ></path>
<path d="M-300 149.5 L1741.5957044489192 149.5 A15 15 0 0 0 1741.5957044489192 180.5 L-300 180.5" fill="#fff" transform="matrix(1,0,0,1,-46.03268051147461,0)" style="animation-play-state:paused" ></path>
<path d="M-60.78396918555303 149.5 L-30.000000000000004 149.5 A15 15 0 0 1 -30.000000000000004 180.5 L-60.78396918555303 180.5 A15 15 0 0 1 -60.78396918555303 149.5" fill="#000" transform="matrix(1,0,0,1,0,0)" opacity="0.737286" style="opacity:0.737286;animation-play-state:paused" ></path>
<path d="M-300 179.5 L1774.1960094265357 179.5 A15 15 0 0 1 1774.1960094265357 210.5 L-300 210.5" fill="#fff" transform="matrix(1,0,0,1,39.22643280029297,0)" style="animation-play-state:paused" ></path>
<path d="M1708.1044385408247 179.5 L1744.1960094265357 179.5 A15 15 0 0 1 1744.1960094265357 210.5 L1708.1044385408247 210.5 A15 15 0 0 1 1708.1044385408247 179.5" fill="#fff" transform="matrix(1,0,0,1,1349.8033447265625,0)" opacity="0.599143" style="opacity:0.599143;animation-play-state:paused" ></path>
<path d="M-300 209.5 L1736.1281186380459 209.5 A15 15 0 0 0 1736.1281186380459 240.5 L-300 240.5" fill="#fff" transform="matrix(1,0,0,1,-27.9221248626709,0)" style="animation-play-state:paused" ></path>
<path d="M-41.89248520743449 209.5 L-30 209.5 A15 15 0 0 1 -30 240.5 L-41.89248520743449 240.5 A15 15 0 0 1 -41.89248520743449 209.5" fill="#000" transform="matrix(1,0,0,1,0,0)" opacity="0.921714" style="opacity:0.921714;animation-play-state:paused" ></path>
<path d="M-300 239.5 L1821.2938543533742 239.5 A15 15 0 0 1 1821.2938543533742 270.5 L-300 270.5" fill="#fff" transform="matrix(1,0,0,1,38.10769271850586,0)" style="animation-play-state:paused" ></path>
<path d="M1762.268463427453 239.5 L1791.2938543533742 239.5 A15 15 0 0 1 1791.2938543533742 270.5 L1762.268463427453 270.5 A15 15 0 0 1 1762.268463427453 239.5" fill="#fff" transform="matrix(1,0,0,1,1795.105712890625,0)" opacity="0.322571" style="opacity:0.322571;animation-play-state:paused" ></path>
<path d="M-300 269.5 L1778.7767625359904 269.5 A15 15 0 0 0 1778.7767625359904 300.5 L-300 300.5" fill="#fff" transform="matrix(1,0,0,1,-26.81387710571289,0)" style="animation-play-state:paused" ></path>
<path d="M-53.28120525572896 269.5 L-30.000000000000004 269.5 A15 15 0 0 1 -30.000000000000004 300.5 L-53.28120525572896 300.5 A15 15 0 0 1 -53.28120525572896 269.5" fill="#000" transform="matrix(1,0,0,1,0,0)" opacity="0.184286" style="opacity:0.184286;animation-play-state:paused" ></path>
<path d="M-300 299.5 L1801.2207627891014 299.5 A15 15 0 0 1 1801.2207627891014 330.5 L-300 330.5" fill="#fff" transform="matrix(1,0,0,1,0.2649993896484375,0)" style="animation-play-state:paused" ></path>
<path d="M1744.438110581254 299.5 L1771.2207627891014 299.5 A15 15 0 0 1 1771.2207627891014 330.5 L1744.438110581254 330.5 A15 15 0 0 1 1744.438110581254 299.5" fill="#fff" transform="matrix(1,0,0,1,2395.33837890625,0)" opacity="0.0922857" style="opacity:0.0922857;animation-play-state:paused" ></path>
<path d="M-300 329.5 L1757.500765153289 329.5 A15 15 0 0 0 1757.500765153289 360.5 L-300 360.5" fill="#fff" transform="matrix(1,0,0,1,-12.475946426391602,0)" style="animation-play-state:paused" ></path>
<path d="M-69.1503803907055 329.5 L-29.999999999999993 329.5 A15 15 0 0 1 -29.999999999999993 360.5 L-69.1503803907055 360.5 A15 15 0 0 1 -69.1503803907055 329.5" fill="#000" transform="matrix(1,0,0,1,0,0)" opacity="1" style="animation-play-state:paused" ></path>
<path d="M-300 359.5 L1767.3386387834992 359.5 A15 15 0 0 1 1767.3386387834992 390.5 L-300 390.5" fill="#fff" transform="matrix(1,0,0,1,32.114158630371094,0)" style="animation-play-state:paused" ></path>
<path d="M1708.70584027373 359.5 L1737.3386387834992 359.5 A15 15 0 0 1 1737.3386387834992 390.5 L1708.70584027373 390.5 A15 15 0 0 1 1708.70584027373 359.5" fill="#fff" transform="matrix(1,0,0,1,440.0116271972656,0)" opacity="1" style="animation-play-state:paused" ></path>
<path d="M-300 389.5 L1723.5430404831907 389.5 A15 15 0 0 0 1723.5430404831907 420.5 L-300 420.5" fill="#fff" transform="matrix(1,0,0,1,-21.5551815032959,0)" style="animation-play-state:paused" ></path>
<path d="M-62.87969898759616 389.5 L-30 389.5 A15 15 0 0 1 -30 420.5 L-62.87969898759616 420.5 A15 15 0 0 1 -62.87969898759616 389.5" fill="#000" transform="matrix(1,0,0,1,0,0)" opacity="1" style="animation-play-state:paused" ></path>
<path d="M-300 419.5 L1775.2011310309208 419.5 A15 15 0 0 1 1775.2011310309208 450.5 L-300 450.5" fill="#fff" transform="matrix(1,0,0,1,0.9712005257606506,0)" style="animation-play-state:paused" ></path>
<path d="M1708.9768776158744 419.5 L1745.2011310309208 419.5 A15 15 0 0 1 1745.2011310309208 450.5 L1708.9768776158744 450.5 A15 15 0 0 1 1708.9768776158744 419.5" fill="#fff" transform="matrix(1,0,0,1,1780.779541015625,0)" opacity="0.414857" style="opacity:0.414857;animation-play-state:paused" ></path>
<path d="M-300 449.5 L1706.38721953021 449.5 A15 15 0 0 0 1706.38721953021 480.5 L-300 480.5" fill="#fff" transform="matrix(1,0,0,1,-2.9356257915496826,0)" style="animation-play-state:paused" ></path>
<path d="M-65.27885924257892 449.5 L-30 449.5 A15 15 0 0 1 -30 480.5 L-65.27885924257892 480.5 A15 15 0 0 1 -65.27885924257892 449.5" fill="#000" transform="matrix(1,0,0,1,0,0)" opacity="0.138286" style="opacity:0.138286;animation-play-state:paused" ></path>
<path d="M-300 479.5 L1777.5510039331018 479.5 A15 15 0 0 1 1777.5510039331018 510.5 L-300 510.5" fill="#fff" transform="matrix(1,0,0,1,29.197912216186523,0)" style="animation-play-state:paused" ></path>
<path d="M1710.7523777923636 479.5 L1747.5510039331018 479.5 A15 15 0 0 1 1747.5510039331018 510.5 L1710.7523777923636 510.5 A15 15 0 0 1 1710.7523777923636 479.5" fill="#fff" transform="matrix(1,0,0,1,1202.0301513671875,0)" opacity="0.645143" style="opacity:0.645143;animation-play-state:paused" ></path>
<path d="M-300 509.5 L1700.5499380542115 509.5 A15 15 0 0 0 1700.5499380542115 540.5 L-300 540.5" fill="#fff" transform="matrix(1,0,0,1,-24.194068908691406,0)" style="animation-play-state:paused" ></path>
<path d="M-56.27909675402612 509.5 L-30 509.5 A15 15 0 0 1 -30 540.5 L-56.27909675402612 540.5 A15 15 0 0 1 -56.27909675402612 509.5" fill="#000" transform="matrix(1,0,0,1,0,0)" opacity="0.506857" style="opacity:0.506857;animation-play-state:paused" ></path>
<path d="M-300 539.5 L1741.6372425081172 539.5 A15 15 0 0 1 1741.6372425081172 570.5 L-300 570.5" fill="#fff" transform="matrix(1,0,0,1,24.052783966064453,0)" style="animation-play-state:paused" ></path>
<path d="M1697.274641490435 539.5 L1711.6372425081172 539.5 A15 15 0 0 1 1711.6372425081172 570.5 L1697.274641490435 570.5 A15 15 0 0 1 1697.274641490435 539.5" fill="#fff" transform="matrix(1,0,0,1,450.5599670410156,0)" opacity="1" style="animation-play-state:paused" ></path>
<path d="M-300 569.5 L1675.549169369429 569.5 A15 15 0 0 0 1675.549169369429 600.5 L-300 600.5" fill="#fff" transform="matrix(1,0,0,1,-7.25150203704834,0)" style="animation-play-state:paused" ></path>
<path d="M-47.4124400334631 569.5 L-30 569.5 A15 15 0 0 1 -30 600.5 L-47.4124400334631 600.5 A15 15 0 0 1 -47.4124400334631 569.5" fill="#000" transform="matrix(1,0,0,1,0,0)" opacity="0.230429" style="opacity:0.230429;animation-play-state:paused" ></path>
<path d="M-300 599.5 L1702.3562793171498 599.5 A15 15 0 0 1 1702.3562793171498 630.5 L-300 630.5" fill="#fff" transform="matrix(1,0,0,1,5.422773838043213,0)" style="animation-play-state:paused" ></path>
<path d="M1654.1040492066809 599.5 L1672.3562793171498 599.5 A15 15 0 0 1 1672.3562793171498 630.5 L1654.1040492066809 630.5 A15 15 0 0 1 1654.1040492066809 599.5" fill="#fff" transform="matrix(1,0,0,1,2359.514892578125,0)" opacity="0.0921429" style="opacity:0.0921429;animation-play-state:paused" ></path>
<path d="M-300 629.5 L1683.716748718667 629.5 A15 15 0 0 0 1683.716748718667 660.5 L-300 660.5" fill="#fff" transform="matrix(1,0,0,1,-0.26372426748275757,0)" style="animation-play-state:paused" ></path>
<path d="M-59.96667311127263 629.5 L-30 629.5 A15 15 0 0 1 -30 660.5 L-59.96667311127263 660.5 A15 15 0 0 1 -59.96667311127263 629.5" fill="#000" transform="matrix(1,0,0,1,0,0)" opacity="1" style="animation-play-state:paused" ></path>
<path d="M-300 659.5 L1768.7145131672046 659.5 A15 15 0 0 1 1768.7145131672046 690.5 L-300 690.5" fill="#fff" transform="matrix(1,0,0,1,21.024320602416992,0)" style="animation-play-state:paused" ></path>
<path d="M1727.2405673176618 659.5 L1738.7145131672046 659.5 A15 15 0 0 1 1738.7145131672046 690.5 L1727.2405673176618 690.5 A15 15 0 0 1 1727.2405673176618 659.5" fill="#fff" transform="matrix(1,0,0,1,252.68214416503906,0)" opacity="1" style="animation-play-state:paused" ></path>
<path d="M-300 689.5 L1669.390880278273 689.5 A15 15 0 0 0 1669.390880278273 720.5 L-300 720.5" fill="#fff" transform="matrix(1,0,0,1,-34.2650146484375,0)" style="animation-play-state:paused" ></path>
<path d="M-51.63288508489712 689.5 L-30 689.5 A15 15 0 0 1 -30 720.5 L-51.63288508489712 720.5 A15 15 0 0 1 -51.63288508489712 689.5" fill="#000" transform="matrix(1,0,0,1,0,0)" opacity="1" style="animation-play-state:paused" ></path>
<path d="M-300 719.5 L1712.5493640224054 719.5 A15 15 0 0 1 1712.5493640224054 750.5 L-300 750.5" fill="#fff" transform="matrix(1,0,0,1,22.959291458129883,0)" style="animation-play-state:paused" ></path>
<path d="M1658.688670676597 719.5 L1682.5493640224054 719.5 A15 15 0 0 1 1682.5493640224054 750.5 L1658.688670676597 750.5 A15 15 0 0 1 1658.688670676597 719.5" fill="#fff" transform="matrix(1,0,0,1,1265.0478515625,0)" opacity="0.506857" style="opacity:0.506857;animation-play-state:paused" ></path>
<path d="M-300 749.5 L1674.952485770169 749.5 A15 15 0 0 0 1674.952485770169 780.5 L-300 780.5" fill="#fff" transform="matrix(1,0,0,1,-6.1142048835754395,0)" style="animation-play-state:paused" ></path>
<path d="M-66.50395234322477 749.5 L-30 749.5 A15 15 0 0 1 -30 780.5 L-66.50395234322477 780.5 A15 15 0 0 1 -66.50395234322477 749.5" fill="#000" transform="matrix(1,0,0,1,0,0)" opacity="1" style="animation-play-state:paused" ></path>
<path d="M-300 779.5 L1752.3625872678424 779.5 A15 15 0 0 1 1752.3625872678424 810.5 L-300 810.5" fill="#fff" transform="matrix(1,0,0,1,29.94713020324707,0)" style="animation-play-state:paused" ></path>
<path d="M1709.1438916853463 779.5 L1722.3625872678424 779.5 A15 15 0 0 1 1722.3625872678424 810.5 L1709.1438916853463 810.5 A15 15 0 0 1 1709.1438916853463 779.5" fill="#fff" transform="matrix(1,0,0,1,60.70699691772461,0)" opacity="1" style="animation-play-state:paused" ></path>
<path d="M-300 809.5 L1686.0304034121832 809.5 A15 15 0 0 0 1686.0304034121832 840.5 L-300 840.5" fill="#fff" transform="matrix(1,0,0,1,-5.718813419342041,0)" style="animation-play-state:paused" ></path>
<path d="M-63.90079344008133 809.5 L-30 809.5 A15 15 0 0 1 -30 840.5 L-63.90079344008133 840.5 A15 15 0 0 1 -63.90079344008133 809.5" fill="#000" transform="matrix(1,0,0,1,0,0)" opacity="1" style="animation-play-state:paused" ></path>
<path d="M-300 839.5 L1724.0291858133219 839.5 A15 15 0 0 1 1724.0291858133219 870.5 L-300 870.5" fill="#fff" transform="matrix(1,0,0,1,35.79546356201172,0)" style="animation-play-state:paused" ></path>
<path d="M1662.4397588669779 839.5 L1694.0291858133219 839.5 A15 15 0 0 1 1694.0291858133219 870.5 L1662.4397588669779 870.5 A15 15 0 0 1 1662.4397588669779 839.5" fill="#fff" transform="matrix(1,0,0,1,246.56289672851562,0)" opacity="1" style="animation-play-state:paused" ></path>
<path d="M-300 869.5 L1695.6357467810235 869.5 A15 15 0 0 0 1695.6357467810235 900.5 L-300 900.5" fill="#fff" transform="matrix(1,0,0,1,-38.64265823364258,0)" style="animation-play-state:paused" ></path>
<path d="M-66.34722120253016 869.5 L-30 869.5 A15 15 0 0 1 -30 900.5 L-66.34722120253016 900.5 A15 15 0 0 1 -66.34722120253016 869.5" fill="#000" transform="matrix(1,0,0,1,0,0)" opacity="0.828083" style="opacity:0.828083;animation-play-state:paused" ></path>
<path d="M-300 899.5 L1769.4534157832481 899.5 A15 15 0 0 1 1769.4534157832481 930.5 L-300 930.5" fill="#fff" transform="matrix(1,0,0,1,17.729610443115234,0)" style="animation-play-state:paused" ></path>
<path d="M1707.2550019699859 899.5 L1739.4534157832481 899.5 A15 15 0 0 1 1739.4534157832481 930.5 L1707.2550019699859 930.5 A15 15 0 0 1 1707.2550019699859 899.5" fill="#fff" transform="matrix(1,0,0,1,2181.562255859375,0)" opacity="0.138286" style="opacity:0.138286;animation-play-state:paused" ></path></g></mask></defs>


<rect x="0" y="0" width="1920" height="925" fill="url(#ldbk-photon-cyz3omjayhu-lg)" mask="url(#ldbk-photon-cyz3omjayhu-mask)" style="animation-play-state:paused" ></rect></g></svg>