<?xml version="1.0" encoding="utf-8"?><svg xmlns="http://www.w3.org/2000/svg" xmlns:xlink="http://www.w3.org/1999/xlink" width="1974" height="925" preserveAspectRatio="xMidYMid" viewBox="0 0 1974 925" style="z-index:1;display:block;background-color:rgb(241, 242, 243);animation-play-state:paused" ><g transform="" style="animation-play-state:paused" ><g id="bk-0.08498555496731919" style="animation-play-state:paused" ><path d="M962 388L953 241L841 412z" stroke="#dc9e63" fill="#dc9e63" style="animation-play-state:paused" ></path>
<path d="M953 241L788 239L841 412z" stroke="#dea86e" fill="#dea86e" style="animation-play-state:paused" ></path>
<path d="M788 239L690 248L841 412z" stroke="#dfae75" fill="#dfae75" style="animation-play-state:paused" ></path>
<path d="M1094 224L978 97L953 241z" stroke="#dfab72" fill="#dfab72" style="animation-play-state:paused" ></path>
<path d="M953 241L811 97L788 239z" stroke="#e1b47d" fill="#e1b47d" style="animation-play-state:paused" ></path>
<path d="M788 239L655 81L690 248z" stroke="#e3bd8a" fill="#e3bd8a" style="animation-play-state:paused" ></path>
<path d="M962 388L1094 224L953 241z" stroke="#dc9f65" fill="#dc9f65" style="animation-play-state:paused" ></path>
<path d="M978 97L811 97L953 241z" stroke="#e1b57f" fill="#e1b57f" style="animation-play-state:paused" ></path>
<path d="M690 248L665 403L841 412z" stroke="#dfab72" fill="#dfab72" style="animation-play-state:paused" ></path>
<path d="M830 545L989 573L962 388z" stroke="#d88d52" fill="#d88d52" style="animation-play-state:paused" ></path>
<path d="M830 545L962 388L841 412z" stroke="#da965b" fill="#da965b" style="animation-play-state:paused" ></path>
<path d="M962 388L1122 424L1094 224z" stroke="#da9459" fill="#da9459" style="animation-play-state:paused" ></path>
<path d="M693 583L830 545L841 412z" stroke="#da975c" fill="#da975c" style="animation-play-state:paused" ></path>
<path d="M1097 520L1122 424L962 388z" stroke="#d5894f" fill="#d5894f" style="animation-play-state:paused" ></path>
<path d="M989 573L1097 520L962 388z" stroke="#d2874e" fill="#d2874e" style="animation-play-state:paused" ></path>
<path d="M1273 229L1144 75L1094 224z" stroke="#dda268" fill="#dda268" style="animation-play-state:paused" ></path>
<path d="M1094 224L1144 75L978 97z" stroke="#dfad75" fill="#dfad75" style="animation-play-state:paused" ></path>
<path d="M978 97L988 -47L811 97z" stroke="#e4c08d" fill="#e4c08d" style="animation-play-state:paused" ></path>
<path d="M665 403L693 583L841 412z" stroke="#dca065" fill="#dca065" style="animation-play-state:paused" ></path>
<path d="M678 -21L655 81L811 97z" stroke="#e8cc9f" fill="#e8cc9f" style="animation-play-state:paused" ></path>
<path d="M811 97L655 81L788 239z" stroke="#e4c08e" fill="#e4c08e" style="animation-play-state:paused" ></path>
<path d="M690 248L524 276L665 403z" stroke="#e2b781" fill="#e2b781" style="animation-play-state:paused" ></path>
<path d="M655 81L524 276L690 248z" stroke="#e5c290" fill="#e5c290" style="animation-play-state:paused" ></path>
<path d="M665 403L516 544L693 583z" stroke="#dda56b" fill="#dda56b" style="animation-play-state:paused" ></path>
<path d="M1282 577L1248 359L1122 424z" stroke="#c87f49" fill="#c87f49" style="animation-play-state:paused" ></path>
<path d="M1122 424L1273 229L1094 224z" stroke="#da9458" fill="#da9458" style="animation-play-state:paused" ></path>
<path d="M1248 359L1273 229L1122 424z" stroke="#d78b50" fill="#d78b50" style="animation-play-state:paused" ></path>
<path d="M1172 -44L988 -47L978 97z" stroke="#e4bf8c" fill="#e4bf8c" style="animation-play-state:paused" ></path>
<path d="M693 583L843 716L830 545z" stroke="#d88d52" fill="#d88d52" style="animation-play-state:paused" ></path>
<path d="M830 545L843 716L989 573z" stroke="#d1864e" fill="#d1864e" style="animation-play-state:paused" ></path>
<path d="M989 573L1113 711L1097 520z" stroke="#c37b47" fill="#c37b47" style="animation-play-state:paused" ></path>
<path d="M524 276L530 384L665 403z" stroke="#e2b781" fill="#e2b781" style="animation-play-state:paused" ></path>
<path d="M693 583L664 687L843 716z" stroke="#d88e53" fill="#d88e53" style="animation-play-state:paused" ></path>
<path d="M825 -107L678 -21L811 97z" stroke="#e9d0a4" fill="#e9d0a4" style="animation-play-state:paused" ></path>
<path d="M655 81L482 78L524 276z" stroke="#e8cc9f" fill="#e8cc9f" style="animation-play-state:paused" ></path>
<path d="M988 -47L825 -107L811 97z" stroke="#e8cb9d" fill="#e8cb9d" style="animation-play-state:paused" ></path>
<path d="M843 716L1027 722L989 573z" stroke="#c67e49" fill="#c67e49" style="animation-play-state:paused" ></path>
<path d="M1097 520L1282 577L1122 424z" stroke="#c57d48" fill="#c57d48" style="animation-play-state:paused" ></path>
<path d="M1144 75L1172 -44L978 97z" stroke="#e2b782" fill="#e2b782" style="animation-play-state:paused" ></path>
<path d="M988 -47L998 -226L825 -107z" stroke="#ebd4ab" fill="#ebd4ab" style="animation-play-state:paused" ></path>
<path d="M1267 106L1172 -44L1144 75z" stroke="#e0b27b" fill="#e0b27b" style="animation-play-state:paused" ></path>
<path d="M530 384L516 544L665 403z" stroke="#e0af77" fill="#e0af77" style="animation-play-state:paused" ></path>
<path d="M1027 722L1113 711L989 573z" stroke="#bf7845" fill="#bf7845" style="animation-play-state:paused" ></path>
<path d="M1434 229L1267 106L1273 229z" stroke="#da985d" fill="#da985d" style="animation-play-state:paused" ></path>
<path d="M1273 229L1267 106L1144 75z" stroke="#dda46a" fill="#dda46a" style="animation-play-state:paused" ></path>
<path d="M516 544L664 687L693 583z" stroke="#db9d62" fill="#db9d62" style="animation-play-state:paused" ></path>
<path d="M843 716L979 850L1027 722z" stroke="#bf7845" fill="#bf7845" style="animation-play-state:paused" ></path>
<path d="M1113 711L1282 577L1097 520z" stroke="#bb7543" fill="#bb7543" style="animation-play-state:paused" ></path>
<path d="M1248 359L1434 229L1273 229z" stroke="#d88d51" fill="#d88d51" style="animation-play-state:paused" ></path>
<path d="M502 -63L655 81L678 -21z" stroke="#ecd8b1" fill="#ecd8b1" style="animation-play-state:paused" ></path>
<path d="M502 -63L482 78L655 81z" stroke="#edd8b1" fill="#edd8b1" style="animation-play-state:paused" ></path>
<path d="M524 276L361 269L530 384z" stroke="#e5c290" fill="#e5c290" style="animation-play-state:paused" ></path>
<path d="M482 78L361 269L524 276z" stroke="#e8cda0" fill="#e8cda0" style="animation-play-state:paused" ></path>
<path d="M530 384L386 569L516 544z" stroke="#e0b17a" fill="#e0b17a" style="animation-play-state:paused" ></path>
<path d="M1116 -246L998 -226L988 -47z" stroke="#ebd5ad" fill="#ebd5ad" style="animation-play-state:paused" ></path>
<path d="M825 -107L639 -221L678 -21z" stroke="#efdfbc" fill="#efdfbc" style="animation-play-state:paused" ></path>
<path d="M1282 577L1420 367L1248 359z" stroke="#c47b47" fill="#c47b47" style="animation-play-state:paused" ></path>
<path d="M1420 367L1434 229L1248 359z" stroke="#cf854d" fill="#cf854d" style="animation-play-state:paused" ></path>
<path d="M1267 106L1300 -55L1172 -44z" stroke="#e1b57f" fill="#e1b57f" style="animation-play-state:paused" ></path>
<path d="M364 715L519 712L516 544z" stroke="#dea76d" fill="#dea76d" style="animation-play-state:paused" ></path>
<path d="M516 544L519 712L664 687z" stroke="#dc9e64" fill="#dc9e64" style="animation-play-state:paused" ></path>
<path d="M854 892L979 850L843 716z" stroke="#c17946" fill="#c17946" style="animation-play-state:paused" ></path>
<path d="M1427 91L1300 -55L1267 106z" stroke="#dfab72" fill="#dfab72" style="animation-play-state:paused" ></path>
<path d="M1172 -44L1116 -246L988 -47z" stroke="#e8cb9d" fill="#e8cb9d" style="animation-play-state:paused" ></path>
<path d="M998 -226L833 -243L825 -107z" stroke="#efdfbb" fill="#efdfbb" style="animation-play-state:paused" ></path>
<path d="M854 892L843 716L683 883z" stroke="#c9804a" fill="#c9804a" style="animation-play-state:paused" ></path>
<path d="M1027 722L1129 853L1113 711z" stroke="#b36e3f" fill="#b36e3f" style="animation-play-state:paused" ></path>
<path d="M1113 711L1307 708L1282 577z" stroke="#af6b3e" fill="#af6b3e" style="animation-play-state:paused" ></path>
<path d="M361 269L354 366L530 384z" stroke="#e5c493" fill="#e5c493" style="animation-play-state:paused" ></path>
<path d="M683 883L843 716L664 687z" stroke="#d3884f" fill="#d3884f" style="animation-play-state:paused" ></path>
<path d="M639 -221L502 -63L678 -21z" stroke="#f1e3c3" fill="#f1e3c3" style="animation-play-state:paused" ></path>
<path d="M482 78L332 95L361 269z" stroke="#ecd7af" fill="#ecd7af" style="animation-play-state:paused" ></path>
<path d="M1129 853L1307 708L1113 711z" stroke="#ab683c" fill="#ab683c" style="animation-play-state:paused" ></path>
<path d="M1282 577L1412 536L1420 367z" stroke="#b97242" fill="#b97242" style="animation-play-state:paused" ></path>
<path d="M354 366L386 569L530 384z" stroke="#e3bb86" fill="#e3bb86" style="animation-play-state:paused" ></path>
<path d="M1307 708L1412 536L1282 577z" stroke="#ae6a3d" fill="#ae6a3d" style="animation-play-state:paused" ></path>
<path d="M1556 361L1567 196L1434 229z" stroke="#cf844d" fill="#cf844d" style="animation-play-state:paused" ></path>
<path d="M1305 -168L1116 -246L1172 -44z" stroke="#e8cb9e" fill="#e8cb9e" style="animation-play-state:paused" ></path>
<path d="M998 -226L1116 -246L833 -243z" stroke="#f0e0bd" fill="#f0e0bd" style="animation-play-state:paused" ></path>
<path d="M1567 196L1427 91L1434 229z" stroke="#d99257" fill="#d99257" style="animation-play-state:paused" ></path>
<path d="M1434 229L1427 91L1267 106z" stroke="#db9b60" fill="#db9b60" style="animation-play-state:paused" ></path>
<path d="M1300 -55L1305 -168L1172 -44z" stroke="#e4c08e" fill="#e4c08e" style="animation-play-state:paused" ></path>
<path d="M367 -65L332 95L482 78z" stroke="#f0e1c0" fill="#f0e1c0" style="animation-play-state:paused" ></path>
<path d="M361 269L208 253L354 366z" stroke="#e9cfa4" fill="#e9cfa4" style="animation-play-state:paused" ></path>
<path d="M519 712L683 883L664 687z" stroke="#d99256" fill="#d99256" style="animation-play-state:paused" ></path>
<path d="M1084 1001L1129 853L979 850z" stroke="#ab683c" fill="#ab683c" style="animation-play-state:paused" ></path>
<path d="M979 850L1129 853L1027 722z" stroke="#b36e40" fill="#b36e40" style="animation-play-state:paused" ></path>
<path d="M942 1001L979 850L854 892z" stroke="#b87242" fill="#b87242" style="animation-play-state:paused" ></path>
<path d="M1116 -246L639 -221L833 -243z" stroke="#f2e5c6" fill="#f2e5c6" style="animation-play-state:paused" ></path>
<path d="M833 -243L639 -221L825 -107z" stroke="#f2e4c5" fill="#f2e4c5" style="animation-play-state:paused" ></path>
<path d="M1421 -57L1305 -168L1300 -55z" stroke="#e3bd8a" fill="#e3bd8a" style="animation-play-state:paused" ></path>
<path d="M364 715L518 842L519 712z" stroke="#dca066" fill="#dca066" style="animation-play-state:paused" ></path>
<path d="M519 712L518 842L683 883z" stroke="#d99358" fill="#d99358" style="animation-play-state:paused" ></path>
<path d="M228 533L364 715L386 569z" stroke="#e1b680" fill="#e1b680" style="animation-play-state:paused" ></path>
<path d="M386 569L364 715L516 544z" stroke="#dfae76" fill="#dfae76" style="animation-play-state:paused" ></path>
<path d="M639 -221L520 -244L502 -63z" stroke="#f5e8cd" fill="#f5e8cd" style="animation-play-state:paused" ></path>
<path d="M502 -63L367 -65L482 78z" stroke="#f1e3c3" fill="#f1e3c3" style="animation-play-state:paused" ></path>
<path d="M1427 91L1421 -57L1300 -55z" stroke="#e0b078" fill="#e0b078" style="animation-play-state:paused" ></path>
<path d="M855 1024L854 892L683 883z" stroke="#c37b47" fill="#c37b47" style="animation-play-state:paused" ></path>
<path d="M855 1024L942 1001L854 892z" stroke="#b97342" fill="#b97342" style="animation-play-state:paused" ></path>
<path d="M325 -225L367 -65L502 -63z" stroke="#f6e9ce" fill="#f6e9ce" style="animation-play-state:paused" ></path>
<path d="M212 82L208 253L361 269z" stroke="#eedbb5" fill="#eedbb5" style="animation-play-state:paused" ></path>
<path d="M1556 361L1434 229L1420 367z" stroke="#c9804a" fill="#c9804a" style="animation-play-state:paused" ></path>
<path d="M1427 91L1594 -66L1421 -57z" stroke="#dfac73" fill="#dfac73" style="animation-play-state:paused" ></path>
<path d="M1620 535L1556 361L1412 536z" stroke="#b06c3e" fill="#b06c3e" style="animation-play-state:paused" ></path>
<path d="M1412 536L1556 361L1420 367z" stroke="#bc7544" fill="#bc7544" style="animation-play-state:paused" ></path>
<path d="M212 82L361 269L332 95z" stroke="#eeddb8" fill="#eeddb8" style="animation-play-state:paused" ></path>
<path d="M354 366L228 533L386 569z" stroke="#e4bf8c" fill="#e4bf8c" style="animation-play-state:paused" ></path>
<path d="M268 -25L212 82L332 95z" stroke="#f3e7c9" fill="#f3e7c9" style="animation-play-state:paused" ></path>
<path d="M942 1001L1084 1001L979 850z" stroke="#af6b3d" fill="#af6b3d" style="animation-play-state:paused" ></path>
<path d="M1454 850L1487 733L1307 708z" stroke="#975832" fill="#975832" style="animation-play-state:paused" ></path>
<path d="M1307 708L1487 733L1412 536z" stroke="#a36238" fill="#a36238" style="animation-play-state:paused" ></path>
<path d="M1331 874L1307 708L1129 853z" stroke="#a05f37" fill="#a05f37" style="animation-play-state:paused" ></path>
<path d="M1294 996L1331 874L1129 853z" stroke="#9a5a33" fill="#9a5a33" style="animation-play-state:paused" ></path>
<path d="M63 385L204 366L57 245z" stroke="#eedbb6" fill="#eedbb6" style="animation-play-state:paused" ></path>
<path d="M208 253L204 366L354 366z" stroke="#ead1a5" fill="#ead1a5" style="animation-play-state:paused" ></path>
<path d="M714 1017L855 1024L683 883z" stroke="#c67d48" fill="#c67d48" style="animation-play-state:paused" ></path>
<path d="M942 1001L1002 1164L1084 1001z" stroke="#aa673b" fill="#aa673b" style="animation-play-state:paused" ></path>
<path d="M204 366L228 533L354 366z" stroke="#e7c99a" fill="#e7c99a" style="animation-play-state:paused" ></path>
<path d="M364 715L333 822L518 842z" stroke="#dda46a" fill="#dda46a" style="animation-play-state:paused" ></path>
<path d="M214 -189L268 -25L367 -65z" stroke="#f7e9d0" fill="#f7e9d0" style="animation-play-state:paused" ></path>
<path d="M367 -65L268 -25L332 95z" stroke="#f4e7ca" fill="#f4e7ca" style="animation-play-state:paused" ></path>
<path d="M57 245L204 366L208 253z" stroke="#eedbb5" fill="#eedbb5" style="animation-play-state:paused" ></path>
<path d="M1575 692L1620 535L1412 536z" stroke="#a26137" fill="#a26137" style="animation-play-state:paused" ></path>
<path d="M1704 85L1636 124L1731 251z" stroke="#d78b50" fill="#d78b50" style="animation-play-state:paused" ></path>
<path d="M1731 251L1567 196L1556 361z" stroke="#c97f4a" fill="#c97f4a" style="animation-play-state:paused" ></path>
<path d="M1567 196L1636 124L1427 91z" stroke="#da9459" fill="#da9459" style="animation-play-state:paused" ></path>
<path d="M524 983L714 1017L683 883z" stroke="#d1864e" fill="#d1864e" style="animation-play-state:paused" ></path>
<path d="M167 675L333 822L364 715z" stroke="#e0b17a" fill="#e0b17a" style="animation-play-state:paused" ></path>
<path d="M518 842L524 983L683 883z" stroke="#d88e53" fill="#d88e53" style="animation-play-state:paused" ></path>
<path d="M1594 -66L1466 -161L1421 -57z" stroke="#e2b782" fill="#e2b782" style="animation-play-state:paused" ></path>
<path d="M1421 -57L1466 -161L1305 -168z" stroke="#e4c08d" fill="#e4c08d" style="animation-play-state:paused" ></path>
<path d="M1305 -168L1566 -245L1116 -246z" stroke="#e9cfa3" fill="#e9cfa3" style="animation-play-state:paused" ></path>
<path d="M1331 874L1454 850L1307 708z" stroke="#975832" fill="#975832" style="animation-play-state:paused" ></path>
<path d="M1487 733L1575 692L1412 536z" stroke="#9d5d35" fill="#9d5d35" style="animation-play-state:paused" ></path>
<path d="M1471 1022L1454 850L1331 874z" stroke="#8a4f2c" fill="#8a4f2c" style="animation-play-state:paused" ></path>
<path d="M1638 903L1575 692L1487 733z" stroke="#8a4f2c" fill="#8a4f2c" style="animation-play-state:paused" ></path>
<path d="M1636 124L1594 -66L1427 91z" stroke="#dca066" fill="#dca066" style="animation-play-state:paused" ></path>
<path d="M364 1014L524 983L518 842z" stroke="#da975c" fill="#da975c" style="animation-play-state:paused" ></path>
<path d="M520 -244L325 -225L502 -63z" stroke="#f7e9d0" fill="#f7e9d0" style="animation-play-state:paused" ></path>
<path d="M639 -221L325 -225L520 -244z" stroke="#f7ead2" fill="#f7ead2" style="animation-play-state:paused" ></path>
<path d="M228 533L167 675L364 715z" stroke="#e2ba85" fill="#e2ba85" style="animation-play-state:paused" ></path>
<path d="M333 822L364 1014L518 842z" stroke="#dc9f64" fill="#dc9f64" style="animation-play-state:paused" ></path>
<path d="M15 541L167 675L228 533z" stroke="#e6c798" fill="#e6c798" style="animation-play-state:paused" ></path>
<path d="M1142 1132L1294 996L1084 1001z" stroke="#9a5b34" fill="#9a5b34" style="animation-play-state:paused" ></path>
<path d="M1084 1001L1294 996L1129 853z" stroke="#9f5e36" fill="#9f5e36" style="animation-play-state:paused" ></path>
<path d="M1746 675L1620 535L1575 692z" stroke="#955731" fill="#955731" style="animation-play-state:paused" ></path>
<path d="M1002 1164L942 1001L855 1024z" stroke="#b16c3e" fill="#b16c3e" style="animation-play-state:paused" ></path>
<path d="M325 -225L214 -189L367 -65z" stroke="#f8ead3" fill="#f8ead3" style="animation-play-state:paused" ></path>
<path d="M57 245L208 253L212 82z" stroke="#f1e3c2" fill="#f1e3c2" style="animation-play-state:paused" ></path>
<path d="M1761 578L1718 402L1620 535z" stroke="#a36138" fill="#a36138" style="animation-play-state:paused" ></path>
<path d="M1620 535L1718 402L1556 361z" stroke="#b16c3e" fill="#b16c3e" style="animation-play-state:paused" ></path>
<path d="M1636 124L1704 85L1594 -66z" stroke="#db9d62" fill="#db9d62" style="animation-play-state:paused" ></path>
<path d="M57 245L212 82L31 80z" stroke="#f4e8cb" fill="#f4e8cb" style="animation-play-state:paused" ></path>
<path d="M204 366L63 385L228 533z" stroke="#e9d0a4" fill="#e9d0a4" style="animation-play-state:paused" ></path>
<path d="M829 1199L855 1024L714 1017z" stroke="#be7744" fill="#be7744" style="animation-play-state:paused" ></path>
<path d="M829 1199L1002 1164L855 1024z" stroke="#b36e3f" fill="#b36e3f" style="animation-play-state:paused" ></path>
<path d="M1731 251L1636 124L1567 196z" stroke="#d3884f" fill="#d3884f" style="animation-play-state:paused" ></path>
<path d="M1594 -66L1566 -245L1466 -161z" stroke="#e4be8b" fill="#e4be8b" style="animation-play-state:paused" ></path>
<path d="M1718 402L1731 251L1556 361z" stroke="#bc7544" fill="#bc7544" style="animation-play-state:paused" ></path>
<path d="M524 983L643 1123L714 1017z" stroke="#d0854d" fill="#d0854d" style="animation-play-state:paused" ></path>
<path d="M31 80L212 82L268 -25z" stroke="#f5e8cd" fill="#f5e8cd" style="animation-play-state:paused" ></path>
<path d="M643 1123L829 1199L714 1017z" stroke="#c47c47" fill="#c47c47" style="animation-play-state:paused" ></path>
<path d="M34 822L200 864L167 675z" stroke="#e3bd89" fill="#e3bd89" style="animation-play-state:paused" ></path>
<path d="M167 675L200 864L333 822z" stroke="#e1b47d" fill="#e1b47d" style="animation-play-state:paused" ></path>
<path d="M524 983L566 1157L643 1123z" stroke="#d4884f" fill="#d4884f" style="animation-play-state:paused" ></path>
<path d="M200 864L364 1014L333 822z" stroke="#dea970" fill="#dea970" style="animation-play-state:paused" ></path>
<path d="M1738 -78L1566 -245L1594 -66z" stroke="#e2b782" fill="#e2b782" style="animation-play-state:paused" ></path>
<path d="M1466 -161L1566 -245L1305 -168z" stroke="#e6c797" fill="#e6c797" style="animation-play-state:paused" ></path>
<path d="M1002 1164L1142 1132L1084 1001z" stroke="#a26137" fill="#a26137" style="animation-play-state:paused" ></path>
<path d="M1279 1193L1142 1132L1002 1164z" stroke="#9a5b34" fill="#9a5b34" style="animation-play-state:paused" ></path>
<path d="M-122 389L15 541L63 385z" stroke="#eeddb8" fill="#eeddb8" style="animation-play-state:paused" ></path>
<path d="M63 385L15 541L228 533z" stroke="#e9d0a5" fill="#e9d0a5" style="animation-play-state:paused" ></path>
<path d="M70 -37L31 80L268 -25z" stroke="#f7ead1" fill="#f7ead1" style="animation-play-state:paused" ></path>
<path d="M57 245L-107 270L63 385z" stroke="#f2e5c6" fill="#f2e5c6" style="animation-play-state:paused" ></path>
<path d="M1746 675L1761 578L1620 535z" stroke="#965832" fill="#965832" style="animation-play-state:paused" ></path>
<path d="M1894 389L1870 213L1731 251z" stroke="#bd7644" fill="#bd7644" style="animation-play-state:paused" ></path>
<path d="M1638 903L1487 733L1454 850z" stroke="#884d2b" fill="#884d2b" style="animation-play-state:paused" ></path>
<path d="M1442 1125L1471 1022L1294 996z" stroke="#844a29" fill="#844a29" style="animation-play-state:paused" ></path>
<path d="M1294 996L1471 1022L1331 874z" stroke="#8c502d" fill="#8c502d" style="animation-play-state:paused" ></path>
<path d="M1704 85L1738 -78L1594 -66z" stroke="#dda66c" fill="#dda66c" style="animation-play-state:paused" ></path>
<path d="M1855 40L1738 -78L1704 85z" stroke="#dc9d63" fill="#dc9d63" style="animation-play-state:paused" ></path>
<path d="M214 -189L70 -37L268 -25z" stroke="#f8ead3" fill="#f8ead3" style="animation-play-state:paused" ></path>
<path d="M15 541L43 715L167 675z" stroke="#e7c99a" fill="#e7c99a" style="animation-play-state:paused" ></path>
<path d="M200 864L217 1019L364 1014z" stroke="#deaa71" fill="#deaa71" style="animation-play-state:paused" ></path>
<path d="M1558 982L1638 903L1454 850z" stroke="#7f4627" fill="#7f4627" style="animation-play-state:paused" ></path>
<path d="M1638 903L1746 675L1575 692z" stroke="#864b2a" fill="#864b2a" style="animation-play-state:paused" ></path>
<path d="M353 1185L566 1157L524 983z" stroke="#d99156" fill="#d99156" style="animation-play-state:paused" ></path>
<path d="M643 1123L566 1157L829 1199z" stroke="#c87f4a" fill="#c87f4a" style="animation-play-state:paused" ></path>
<path d="M353 1185L524 983L364 1014z" stroke="#db995e" fill="#db995e" style="animation-play-state:paused" ></path>
<path d="M829 1199L1279 1193L1002 1164z" stroke="#a46238" fill="#a46238" style="animation-play-state:paused" ></path>
<path d="M1142 1132L1279 1193L1294 996z" stroke="#925430" fill="#925430" style="animation-play-state:paused" ></path>
<path d="M1471 1022L1558 982L1454 850z" stroke="#814828" fill="#814828" style="animation-play-state:paused" ></path>
<path d="M566 1157L1279 1193L829 1199z" stroke="#b36e3f" fill="#b36e3f" style="animation-play-state:paused" ></path>
<path d="M325 -225L58 -185L214 -189z" stroke="#faecd9" fill="#faecd9" style="animation-play-state:paused" ></path>
<path d="M214 -189L58 -185L70 -37z" stroke="#faecd8" fill="#faecd8" style="animation-play-state:paused" ></path>
<path d="M-113 86L57 245L31 80z" stroke="#f6e9cf" fill="#f6e9cf" style="animation-play-state:paused" ></path>
<path d="M1598 1178L1558 982L1471 1022z" stroke="#774023" fill="#774023" style="animation-play-state:paused" ></path>
<path d="M1638 903L1764 855L1746 675z" stroke="#7c4425" fill="#7c4425" style="animation-play-state:paused" ></path>
<path d="M69 1019L217 1019L200 864z" stroke="#e1b37c" fill="#e1b37c" style="animation-play-state:paused" ></path>
<path d="M1894 389L1731 251L1718 402z" stroke="#b67041" fill="#b67041" style="animation-play-state:paused" ></path>
<path d="M1731 251L1870 213L1704 85z" stroke="#cf854d" fill="#cf854d" style="animation-play-state:paused" ></path>
<path d="M1886 559L1718 402L1761 578z" stroke="#9d5d35" fill="#9d5d35" style="animation-play-state:paused" ></path>
<path d="M1279 1193L1442 1125L1294 996z" stroke="#884d2b" fill="#884d2b" style="animation-play-state:paused" ></path>
<path d="M-113 86L31 80L-86 -41z" stroke="#f9ebd5" fill="#f9ebd5" style="animation-play-state:paused" ></path>
<path d="M-113 86L-107 270L57 245z" stroke="#f6e9ce" fill="#f6e9ce" style="animation-play-state:paused" ></path>
<path d="M15 541L-84 586L43 715z" stroke="#ead2a7" fill="#ead2a7" style="animation-play-state:paused" ></path>
<path d="M1923 -197L1717 -226L1738 -78z" stroke="#e2b883" fill="#e2b883" style="animation-play-state:paused" ></path>
<path d="M1738 -78L1717 -226L1566 -245z" stroke="#e4be8a" fill="#e4be8a" style="animation-play-state:paused" ></path>
<path d="M1566 -245L1717 -226L1116 -246z" stroke="#e8cc9f" fill="#e8cc9f" style="animation-play-state:paused" ></path>
<path d="M1116 -246L1717 -226L639 -221z" stroke="#ecd7af" fill="#ecd7af" style="animation-play-state:paused" ></path>
<path d="M-107 270L-122 389L63 385z" stroke="#f3e6c7" fill="#f3e6c7" style="animation-play-state:paused" ></path>
<path d="M-78 909L34 822L43 715z" stroke="#e6c797" fill="#e6c797" style="animation-play-state:paused" ></path>
<path d="M43 715L34 822L167 675z" stroke="#e5c492" fill="#e5c492" style="animation-play-state:paused" ></path>
<path d="M217 1019L353 1185L364 1014z" stroke="#dda368" fill="#dda368" style="animation-play-state:paused" ></path>
<path d="M1885 714L1761 578L1746 675z" stroke="#894e2c" fill="#894e2c" style="animation-play-state:paused" ></path>
<path d="M1885 714L1886 559L1761 578z" stroke="#8c502d" fill="#8c502d" style="animation-play-state:paused" ></path>
<path d="M1914 -50L1855 40L2067 -62z" stroke="#dc9e64" fill="#dc9e64" style="animation-play-state:paused" ></path>
<path d="M1870 213L1855 40L1704 85z" stroke="#d88d52" fill="#d88d52" style="animation-play-state:paused" ></path>
<path d="M-122 389L-84 586L15 541z" stroke="#eedcb8" fill="#eedcb8" style="animation-play-state:paused" ></path>
<path d="M1886 559L1894 389L1718 402z" stroke="#a46238" fill="#a46238" style="animation-play-state:paused" ></path>
<path d="M-86 -41L31 80L70 -37z" stroke="#f9ebd5" fill="#f9ebd5" style="animation-play-state:paused" ></path>
<path d="M-107 270L-205 281L-122 389z" stroke="#f5e8cd" fill="#f5e8cd" style="animation-play-state:paused" ></path>
<path d="M1751 984L1638 903L1558 982z" stroke="#743e23" fill="#743e23" style="animation-play-state:paused" ></path>
<path d="M1751 984L1764 855L1638 903z" stroke="#723d22" fill="#723d22" style="animation-play-state:paused" ></path>
<path d="M217 1019L-72 706L353 1185z" stroke="#e1b37c" fill="#e1b37c" style="animation-play-state:paused" ></path>
<path d="M58 -185L-86 -41L70 -37z" stroke="#faedd9" fill="#faedd9" style="animation-play-state:paused" ></path>
<path d="M2083 112L1855 40L1870 213z" stroke="#d3884f" fill="#d3884f" style="animation-play-state:paused" ></path>
<path d="M1855 40L1914 -50L1738 -78z" stroke="#dda268" fill="#dda268" style="animation-play-state:paused" ></path>
<path d="M1442 1125L1598 1178L1471 1022z" stroke="#784124" fill="#784124" style="animation-play-state:paused" ></path>
<path d="M1279 1193L1598 1178L1442 1125z" stroke="#7d4426" fill="#7d4426" style="animation-play-state:paused" ></path>
<path d="M34 822L69 1019L200 864z" stroke="#e3bb86" fill="#e3bb86" style="animation-play-state:paused" ></path>
<path d="M-78 909L69 1019L34 822z" stroke="#e5c391" fill="#e5c391" style="animation-play-state:paused" ></path>
<path d="M2072 431L2063 226L1894 389z" stroke="#ad693d" fill="#ad693d" style="animation-play-state:paused" ></path>
<path d="M1894 389L2063 226L1870 213z" stroke="#bb7443" fill="#bb7443" style="animation-play-state:paused" ></path>
<path d="M1871 860L1885 714L1746 675z" stroke="#7b4325" fill="#7b4325" style="animation-play-state:paused" ></path>
<path d="M1871 860L1746 675L1764 855z" stroke="#784123" fill="#784123" style="animation-play-state:paused" ></path>
<path d="M69 1019L215 1142L217 1019z" stroke="#e0b179" fill="#e0b179" style="animation-play-state:paused" ></path>
<path d="M1598 1178L1751 984L1558 982z" stroke="#6f3b22" fill="#6f3b22" style="animation-play-state:paused" ></path>
<path d="M-229 692L-78 909L43 715z" stroke="#e9d0a5" fill="#e9d0a5" style="animation-play-state:paused" ></path>
<path d="M69 1019L33 1143L215 1142z" stroke="#e1b680" fill="#e1b680" style="animation-play-state:paused" ></path>
<path d="M-229 692L43 715L-84 586z" stroke="#ebd6ad" fill="#ebd6ad" style="animation-play-state:paused" ></path>
<path d="M-236 91L-107 270L-113 86z" stroke="#f8ebd4" fill="#f8ebd4" style="animation-play-state:paused" ></path>
<path d="M-236 91L-205 281L-107 270z" stroke="#f8ead3" fill="#f8ead3" style="animation-play-state:paused" ></path>
<path d="M-122 389L-255 586L-84 586z" stroke="#f1e2c2" fill="#f1e2c2" style="animation-play-state:paused" ></path>
<path d="M1914 -50L1923 -197L1738 -78z" stroke="#dfae75" fill="#dfae75" style="animation-play-state:paused" ></path>
<path d="M1885 1025L1871 860L1764 855z" stroke="#693721" fill="#693721" style="animation-play-state:paused" ></path>
<path d="M325 -225L-119 -248L58 -185z" stroke="#fceedd" fill="#fceedd" style="animation-play-state:paused" ></path>
<path d="M58 -185L-119 -248L-86 -41z" stroke="#fcefdf" fill="#fcefdf" style="animation-play-state:paused" ></path>
<path d="M-86 -41L-236 91L-113 86z" stroke="#faecd8" fill="#faecd8" style="animation-play-state:paused" ></path>
<path d="M2072 431L1894 389L2053 546z" stroke="#9d5d35" fill="#9d5d35" style="animation-play-state:paused" ></path>
<path d="M1914 -50L2027 -217L1923 -197z" stroke="#e0b27b" fill="#e0b27b" style="animation-play-state:paused" ></path>
<path d="M1894 389L1886 559L2053 546z" stroke="#985933" fill="#985933" style="animation-play-state:paused" ></path>
<path d="M-281 358L-255 586L-122 389z" stroke="#f4e8cc" fill="#f4e8cc" style="animation-play-state:paused" ></path>
<path d="M-265 -88L-236 91L-86 -41z" stroke="#fbeedd" fill="#fbeedd" style="animation-play-state:paused" ></path>
<path d="M-205 281L-281 358L-122 389z" stroke="#f6e9ce" fill="#f6e9ce" style="animation-play-state:paused" ></path>
<path d="M-406 391L-281 358L-428 224z" stroke="#f9ebd6" fill="#f9ebd6" style="animation-play-state:paused" ></path>
<path d="M2053 546L1886 559L1885 714z" stroke="#894d2b" fill="#894d2b" style="animation-play-state:paused" ></path>
<path d="M-50 1013L69 1019L-78 909z" stroke="#e5c492" fill="#e5c492" style="animation-play-state:paused" ></path>
<path d="M-50 1013L33 1143L69 1019z" stroke="#e4bf8b" fill="#e4bf8b" style="animation-play-state:paused" ></path>
<path d="M2049 708L2053 546L1885 714z" stroke="#7f4627" fill="#7f4627" style="animation-play-state:paused" ></path>
<path d="M2201 205L2083 112L2063 226z" stroke="#c57d48" fill="#c57d48" style="animation-play-state:paused" ></path>
<path d="M2063 226L2083 112L1870 213z" stroke="#c77e49" fill="#c77e49" style="animation-play-state:paused" ></path>
<path d="M2201 205L2063 226L2072 431z" stroke="#b46f40" fill="#b46f40" style="animation-play-state:paused" ></path>
<path d="M-218 1019L-50 1013L-78 909z" stroke="#e8cc9f" fill="#e8cc9f" style="animation-play-state:paused" ></path>
<path d="M-436 688L-229 692L-255 586z" stroke="#f3e7c9" fill="#f3e7c9" style="animation-play-state:paused" ></path>
<path d="M-255 586L-229 692L-84 586z" stroke="#f0e0bd" fill="#f0e0bd" style="animation-play-state:paused" ></path>
<path d="M1751 984L1885 1025L1764 855z" stroke="#683621" fill="#683621" style="animation-play-state:paused" ></path>
<path d="M2060 859L2049 708L1885 714z" stroke="#713c22" fill="#713c22" style="animation-play-state:paused" ></path>
<path d="M1598 1178L1778 1160L1751 984z" stroke="#663521" fill="#663521" style="animation-play-state:paused" ></path>
<path d="M1279 1193L1778 1160L1598 1178z" stroke="#723d23" fill="#723d23" style="animation-play-state:paused" ></path>
<path d="M2083 112L2067 -62L1855 40z" stroke="#da9559" fill="#da9559" style="animation-play-state:paused" ></path>
<path d="M1778 1160L1885 1025L1751 984z" stroke="#603220" fill="#603220" style="animation-play-state:paused" ></path>
<path d="M-119 -248L-265 -88L-86 -41z" stroke="#fdf0e1" fill="#fdf0e1" style="animation-play-state:paused" ></path>
<path d="M-236 91L-392 137L-205 281z" stroke="#faecd8" fill="#faecd8" style="animation-play-state:paused" ></path>
<path d="M2060 859L1885 714L1871 860z" stroke="#6e3a22" fill="#6e3a22" style="animation-play-state:paused" ></path>
<path d="M2195 420L2201 205L2072 431z" stroke="#a9663b" fill="#a9663b" style="animation-play-state:paused" ></path>
<path d="M2056 968L2060 859L1871 860z" stroke="#603220" fill="#603220" style="animation-play-state:paused" ></path>
<path d="M-229 692L-247 878L-78 909z" stroke="#ecd7af" fill="#ecd7af" style="animation-play-state:paused" ></path>
<path d="M-50 1013L-93 1166L33 1143z" stroke="#e5c391" fill="#e5c391" style="animation-play-state:paused" ></path>
<path d="M-396 857L-247 878L-229 692z" stroke="#f0e0be" fill="#f0e0be" style="animation-play-state:paused" ></path>
<path d="M2067 -62L2027 -217L1914 -50z" stroke="#dfab72" fill="#dfab72" style="animation-play-state:paused" ></path>
<path d="M1923 -197L2027 -217L1717 -226z" stroke="#e3bd89" fill="#e3bd89" style="animation-play-state:paused" ></path>
<path d="M-375 -58L-392 137L-236 91z" stroke="#fcefdf" fill="#fcefdf" style="animation-play-state:paused" ></path>
<path d="M-281 358L-396 556L-255 586z" stroke="#f6e9ce" fill="#f6e9ce" style="animation-play-state:paused" ></path>
<path d="M325 -225L-279 -262L-119 -248z" stroke="#fdf0e3" fill="#fdf0e3" style="animation-play-state:paused" ></path>
<path d="M-119 -248L-279 -262L-265 -88z" stroke="#fef2e7" fill="#fef2e7" style="animation-play-state:paused" ></path>
<path d="M-265 -88L-375 -58L-236 91z" stroke="#fdf0e1" fill="#fdf0e1" style="animation-play-state:paused" ></path>
<path d="M639 -221L-279 -262L325 -225z" stroke="#fbedda" fill="#fbedda" style="animation-play-state:paused" ></path>
<path d="M2083 112L2179 54L2067 -62z" stroke="#d99156" fill="#d99156" style="animation-play-state:paused" ></path>
<path d="M2067 -62L2192 -207L2027 -217z" stroke="#e0b17a" fill="#e0b17a" style="animation-play-state:paused" ></path>
<path d="M2195 420L2072 431L2206 575z" stroke="#955731" fill="#955731" style="animation-play-state:paused" ></path>
<path d="M-428 224L-281 358L-205 281z" stroke="#f9ebd5" fill="#f9ebd5" style="animation-play-state:paused" ></path>
<path d="M-218 1019L-93 1166L-50 1013z" stroke="#e8cb9d" fill="#e8cb9d" style="animation-play-state:paused" ></path>
<path d="M2201 205L2179 54L2083 112z" stroke="#ce844c" fill="#ce844c" style="animation-play-state:paused" ></path>
<path d="M-375 -58L-428 224L-392 137z" stroke="#fcefe0" fill="#fcefe0" style="animation-play-state:paused" ></path>
<path d="M-392 137L-428 224L-205 281z" stroke="#faecd9" fill="#faecd9" style="animation-play-state:paused" ></path>
<path d="M2206 575L2053 546L2049 708z" stroke="#824828" fill="#824828" style="animation-play-state:paused" ></path>
<path d="M2206 575L2072 431L2053 546z" stroke="#90532f" fill="#90532f" style="animation-play-state:paused" ></path>
<path d="M2340 106L2229 -31L2179 54z" stroke="#d88e53" fill="#d88e53" style="animation-play-state:paused" ></path>
<path d="M-428 224L-396 556L-406 391z" stroke="#f9ebd5" fill="#f9ebd5" style="animation-play-state:paused" ></path>
<path d="M-406 391L-396 556L-281 358z" stroke="#f7ead2" fill="#f7ead2" style="animation-play-state:paused" ></path>
<path d="M-247 878L-218 1019L-78 909z" stroke="#ead3a9" fill="#ead3a9" style="animation-play-state:paused" ></path>
<path d="M1885 1025L2056 968L1871 860z" stroke="#5e3020" fill="#5e3020" style="animation-play-state:paused" ></path>
<path d="M2190 831L2242 726L2049 708z" stroke="#6b3822" fill="#6b3822" style="animation-play-state:paused" ></path>
<path d="M1778 1160L1903 1158L1885 1025z" stroke="#582d1f" fill="#582d1f" style="animation-play-state:paused" ></path>
<path d="M1279 1193L1903 1158L1778 1160z" stroke="#693721" fill="#693721" style="animation-play-state:paused" ></path>
<path d="M2056 1140L2056 968L1885 1025z" stroke="#51291d" fill="#51291d" style="animation-play-state:paused" ></path>
<path d="M-429 1001L-218 1019L-247 878z" stroke="#eedcb8" fill="#eedcb8" style="animation-play-state:paused" ></path>
<path d="M2242 726L2206 575L2049 708z" stroke="#774023" fill="#774023" style="animation-play-state:paused" ></path>
<path d="M-384 -237L-375 -58L-265 -88z" stroke="#fef2e7" fill="#fef2e7" style="animation-play-state:paused" ></path>
<path d="M2344 203L2179 54L2201 205z" stroke="#c87f49" fill="#c87f49" style="animation-play-state:paused" ></path>
<path d="M2179 54L2229 -31L2067 -62z" stroke="#db985d" fill="#db985d" style="animation-play-state:paused" ></path>
<path d="M-428 224L-436 688L-396 556z" stroke="#f8ead3" fill="#f8ead3" style="animation-play-state:paused" ></path>
<path d="M-396 556L-436 688L-255 586z" stroke="#f5e8cd" fill="#f5e8cd" style="animation-play-state:paused" ></path>
<path d="M2362 408L2344 203L2195 420z" stroke="#a8653a" fill="#a8653a" style="animation-play-state:paused" ></path>
<path d="M2195 420L2344 203L2201 205z" stroke="#b46e40" fill="#b46e40" style="animation-play-state:paused" ></path>
<path d="M2190 831L2049 708L2060 859z" stroke="#673621" fill="#673621" style="animation-play-state:paused" ></path>
<path d="M2208 1003L2190 831L2056 968z" stroke="#532a1d" fill="#532a1d" style="animation-play-state:paused" ></path>
<path d="M2056 968L2190 831L2060 859z" stroke="#5b2f1f" fill="#5b2f1f" style="animation-play-state:paused" ></path>
<path d="M-436 688L-396 857L-229 692z" stroke="#f3e7c9" fill="#f3e7c9" style="animation-play-state:paused" ></path>
<path d="M-218 1019L-218 1187L-93 1166z" stroke="#e9cfa3" fill="#e9cfa3" style="animation-play-state:paused" ></path>
<path d="M2229 -31L2192 -207L2067 -62z" stroke="#dea66d" fill="#dea66d" style="animation-play-state:paused" ></path>
<path d="M2027 -217L2322 -223L1717 -226z" stroke="#e3bb87" fill="#e3bb87" style="animation-play-state:paused" ></path>
<path d="M1903 1158L2056 1140L1885 1025z" stroke="#50291d" fill="#50291d" style="animation-play-state:paused" ></path>
<path d="M-279 -262L-384 -237L-265 -88z" stroke="#fef3ea" fill="#fef3ea" style="animation-play-state:paused" ></path>
<path d="M-375 -58L-384 -237L-428 224z" stroke="#fdf1e5" fill="#fdf1e5" style="animation-play-state:paused" ></path>
<path d="M-428 224L-384 -237L-436 688z" stroke="#fbeddb" fill="#fbeddb" style="animation-play-state:paused" ></path>
<path d="M-403 1201L-218 1187L-218 1019z" stroke="#ecd8b1" fill="#ecd8b1" style="animation-play-state:paused" ></path>
<path d="M-93 1166L-218 1187L33 1143z" stroke="#e6c798" fill="#e6c798" style="animation-play-state:paused" ></path>
<path d="M33 1143L-403 1201L215 1142z" stroke="#e5c492" fill="#e5c492" style="animation-play-state:paused" ></path>
<path d="M2362 408L2195 420L2366 541z" stroke="#955731" fill="#955731" style="animation-play-state:paused" ></path>
<path d="M2229 -31L2322 -223L2192 -207z" stroke="#dfae76" fill="#dfae76" style="animation-play-state:paused" ></path>
<path d="M2366 541L2206 575L2372 675z" stroke="#7f4627" fill="#7f4627" style="animation-play-state:paused" ></path>
<path d="M2366 541L2195 420L2206 575z" stroke="#8d512e" fill="#8d512e" style="animation-play-state:paused" ></path>
<path d="M-436 688L-429 1001L-396 857z" stroke="#f4e7ca" fill="#f4e7ca" style="animation-play-state:paused" ></path>
<path d="M-396 857L-429 1001L-247 878z" stroke="#f1e3c2" fill="#f1e3c2" style="animation-play-state:paused" ></path>
<path d="M2362 408L2340 106L2344 203z" stroke="#b97242" fill="#b97242" style="animation-play-state:paused" ></path>
<path d="M2344 203L2340 106L2179 54z" stroke="#cd834c" fill="#cd834c" style="animation-play-state:paused" ></path>
<path d="M2372 675L2206 575L2242 726z" stroke="#763f23" fill="#763f23" style="animation-play-state:paused" ></path>
<path d="M2362 408L2381 -57L2340 106z" stroke="#c77e49" fill="#c77e49" style="animation-play-state:paused" ></path>
<path d="M2372 675L2242 726L2343 850z" stroke="#673621" fill="#673621" style="animation-play-state:paused" ></path>
<path d="M2056 1140L2208 1003L2056 968z" stroke="#49251b" fill="#49251b" style="animation-play-state:paused" ></path>
<path d="M2343 850L2242 726L2190 831z" stroke="#613220" fill="#613220" style="animation-play-state:paused" ></path>
<path d="M2366 541L2381 -57L2362 408z" stroke="#af6b3d" fill="#af6b3d" style="animation-play-state:paused" ></path>
<path d="M2340 106L2381 -57L2229 -31z" stroke="#da9458" fill="#da9458" style="animation-play-state:paused" ></path>
<path d="M2381 -57L2322 -223L2229 -31z" stroke="#dda56c" fill="#dda56c" style="animation-play-state:paused" ></path>
<path d="M2192 -207L2322 -223L2027 -217z" stroke="#e2b883" fill="#e2b883" style="animation-play-state:paused" ></path>
<path d="M1717 -226L2322 -223L639 -221z" stroke="#e6c797" fill="#e6c797" style="animation-play-state:paused" ></path>
<path d="M2372 675L2343 850L2366 541z" stroke="#703c22" fill="#703c22" style="animation-play-state:paused" ></path>
<path d="M2366 541L2374 1029L2381 -57z" stroke="#8d512d" fill="#8d512d" style="animation-play-state:paused" ></path>
<path d="M2208 1003L2343 850L2190 831z" stroke="#542b1e" fill="#542b1e" style="animation-play-state:paused" ></path>
<path d="M-429 1001L-403 1201L-218 1019z" stroke="#efdfbc" fill="#efdfbc" style="animation-play-state:paused" ></path>
<path d="M-218 1187L-403 1201L33 1143z" stroke="#e9d0a5" fill="#e9d0a5" style="animation-play-state:paused" ></path>
<path d="M2056 1140L2205 1155L2208 1003z" stroke="#3f2019" fill="#3f2019" style="animation-play-state:paused" ></path>
<path d="M2208 1003L2374 1029L2343 850z" stroke="#48251b" fill="#48251b" style="animation-play-state:paused" ></path>
<path d="M1903 1158L2205 1155L2056 1140z" stroke="#45231a" fill="#45231a" style="animation-play-state:paused" ></path>
<path d="M1279 1193L2205 1155L1903 1158z" stroke="#5c2f1f" fill="#5c2f1f" style="animation-play-state:paused" ></path>
<path d="M2369 1125L2374 1029L2208 1003z" stroke="#3b1e18" fill="#3b1e18" style="animation-play-state:paused" ></path>
<path d="M2343 850L2374 1029L2366 541z" stroke="#5e3120" fill="#5e3120" style="animation-play-state:paused" ></path>
<path d="M2205 1155L2369 1125L2208 1003z" stroke="#381d17" fill="#381d17" style="animation-play-state:paused" ></path></g>
<style type="text/css" style="animation-play-state:paused" >#bk-0.08498555496731919 path { stroke-width: 1 }</style></g></svg>